<?xml version="1.0" encoding="UTF-8" standalone="no"?>
<!-- Created with Inkscape (http://www.inkscape.org/) -->

<svg
   width="512mm"
   height="512mm"
   viewBox="0 0 512 512"
   version="1.1"
   id="svg1"
   inkscape:version="1.3.1 (91b66b0783, 2023-11-16)"
   sodipodi:docname="background.svg"
   xml:space="preserve"
   inkscape:export-filename="background.png"
   inkscape:export-xdpi="50.799999"
   inkscape:export-ydpi="50.799999"
   xmlns:inkscape="http://www.inkscape.org/namespaces/inkscape"
   xmlns:sodipodi="http://sodipodi.sourceforge.net/DTD/sodipodi-0.dtd"
   xmlns="http://www.w3.org/2000/svg"
   xmlns:svg="http://www.w3.org/2000/svg"><sodipodi:namedview
     id="namedview1"
     pagecolor="#ffffff"
     bordercolor="#000000"
     borderopacity="0.25"
     inkscape:showpageshadow="2"
     inkscape:pageopacity="0.0"
     inkscape:pagecheckerboard="0"
     inkscape:deskcolor="#d1d1d1"
     inkscape:document-units="mm"
     inkscape:zoom="0.35355339"
     inkscape:cx="989.94949"
     inkscape:cy="851.35656"
     inkscape:window-width="1718"
     inkscape:window-height="1368"
     inkscape:window-x="0"
     inkscape:window-y="0"
     inkscape:window-maximized="0"
     inkscape:current-layer="layer1"
     showgrid="true"><inkscape:grid
       id="grid1"
       units="mm"
       originx="0"
       originy="0"
       spacingx="0.99999997"
       spacingy="0.99999997"
       empcolor="#0099e5"
       empopacity="0.30196078"
       color="#0099e5"
       opacity="0.14901961"
       empspacing="5"
       dotted="false"
       gridanglex="30"
       gridanglez="30"
       visible="true" /></sodipodi:namedview><defs
     id="defs1"><inkscape:perspective
       sodipodi:type="inkscape:persp3d"
       inkscape:vp_x="0 : 0.5 : 1"
       inkscape:vp_y="0 : 1000 : 0"
       inkscape:vp_z="1 : 0.5 : 1"
       inkscape:persp3d-origin="0.5 : 0.33333333 : 1"
       id="perspective10" /></defs><g
     inkscape:label="Layer 1"
     inkscape:groupmode="layer"
     id="layer1"><rect
       style="fill:#cccccc;stroke-width:0.264583;fill-opacity:1"
       id="rect1"
       width="511.99997"
       height="511.99997"
       x="0"
       y="0" /><g
       id="g1"
       transform="translate(-65.915486,-109.93574)"><g
         id="g3614"
         transform="matrix(0.79375,0,0,0.79375,146.10673,183.29749)"><path
           sodipodi:nodetypes="cssssssssssc"
           id="path2820"
           d="m 62.511677,127.84048 c 0,-0.83977 4.041963,-4.29526 8.982141,-7.67885 10.621365,-7.27471 18.291956,-15.2339 22.753427,-23.609504 10.231245,-19.207279 6.990215,-39.234197 -6.645392,-41.063116 -7.541825,-1.01157 -17.090176,4.491435 -17.090176,9.84959 0,1.98778 0.508501,2.147884 6.037438,1.900912 6.764925,-0.302182 11.341654,6.282702 7.680759,11.050886 -5.784567,7.53419 -19.718197,3.205925 -19.718197,-6.12515 0,-8.178104 4.976735,-14.686661 13.736031,-17.963933 18.744999,-7.013402 36.588252,5.915889 35.025872,25.379878 -1.28058,15.953347 -15.170703,30.852697 -42.135847,45.197347 -6.39814,3.40362 -8.626056,4.19445 -8.626056,3.06194 z"
           style="fill:#c2c2c2" /><ellipse
           transform="matrix(0.8552381,0,0,0.8552381,13.155357,9.9952378)"
           style="fill:#c2c2c2;fill-opacity:1;stroke:none"
           id="path3598"
           cx="128.4375"
           cy="65.625"
           rx="6.5625"
           ry="6.875" /><ellipse
           id="path3600"
           style="fill:#c2c2c2;fill-opacity:1;stroke:none"
           transform="matrix(0.8552381,0,0,0.8552381,13.542857,29.875)"
           cx="128.4375"
           cy="65.625"
           rx="6.5625"
           ry="6.875" /></g></g><g
       id="g2"
       transform="matrix(0.54014254,0,0,0.54014254,336.63803,222.64486)"><path
         d="m 104.549,111.639 c -2.589,0.845 -4.7286,2.271 -6.419,4.279 -1.6906,2.007 -2.7207,4.2 -3.0905,6.577 -0.3698,2.377 -0.066,4.728 0.9113,7.052 0.9773,2.325 2.8131,4.2 5.5072,5.627 0.634,0 1.03,0.264 1.189,0.792 0.158,0.528 -0.08,0.792 -0.713,0.792 -2.589,-0.528 -4.8606,-1.611 -6.8152,-3.248 -3.6452,-3.012 -5.6526,-6.894 -6.0224,-11.649 -0.2113,-2.377 0.0132,-4.675 0.6736,-6.894 0.6603,-2.219 1.5716,-4.253 2.7338,-6.102 1.4263,-1.954 3.1168,-3.645 5.0715,-5.071 0.1056,-0.106 0.4094,-0.343 0.9112,-0.713 0.5019,-0.37 0.9905,-0.713 1.466,-1.03 0.4755,-0.317 1.1885,-0.819 2.1395,-1.506 L 99.1601,86.44 c -2.5886,2.166 -5.1507,4.556 -7.6864,7.171 -2.5358,2.615 -4.8338,5.376 -6.8941,8.281 -2.0602,2.906 -3.7111,5.983 -4.9526,9.232 -1.2414,3.249 -1.8621,6.669 -1.8621,10.262 0,3.328 0.6999,6.458 2.0999,9.39 1.3999,2.932 3.2621,5.481 5.5865,7.646 2.3244,2.166 5.0054,3.87 8.043,5.112 3.0376,1.241 6.1148,1.862 9.2317,1.862 0.106,0 0.594,-0.053 1.466,-0.159 0.872,-0.105 1.796,-0.237 2.773,-0.396 0.978,-0.158 1.876,-0.33 2.695,-0.515 0.818,-0.185 1.228,-0.383 1.228,-0.594 l -0.476,-2.219 c -2.06,-10.407 -4.015,-20.365 -5.863,-29.874 z m 2.773,-0.317 6.498,31.459 c 3.751,-1.427 6.286,-3.87 7.607,-7.33 1.321,-3.46 1.624,-6.973 0.911,-10.539 -0.713,-3.566 -2.39,-6.723 -5.032,-9.47 -2.641,-2.747 -5.969,-4.12 -9.984,-4.12 z M 99.0016,68.928 c 1.6374,-0.846 3.1564,-2.113 4.5564,-3.804 1.4,-1.69 2.694,-3.5 3.883,-5.428 1.188,-1.928 2.219,-3.896 3.09,-5.904 0.872,-2.007 1.572,-3.829 2.1,-5.467 0.581,-1.743 0.977,-3.698 1.189,-5.864 0.211,-2.166 -0.132,-3.988 -1.03,-5.468 -0.634,-1.32 -1.466,-2.086 -2.496,-2.298 -1.031,-0.211 -2.061,-0.132 -3.091,0.238 -1.03,0.37 -2.007,0.964 -2.932,1.783 -0.924,0.819 -1.598,1.545 -2.02,2.179 -1.163,2.06 -2.18,4.358 -3.0513,6.894 -0.8717,2.536 -1.466,5.164 -1.7829,7.885 -0.317,2.72 -0.3566,5.335 -0.1189,7.845 0.2377,2.509 0.8056,4.979 1.7037,7.409 z m -2.3772,2.456 C 95.7263,67.898 94.9339,64.477 94.2471,61.122 93.5603,57.768 93.217,54.321 93.217,50.781 c 0,-2.588 0.1849,-5.428 0.5547,-8.518 0.3697,-3.09 1.0433,-6.102 2.0206,-9.034 0.9773,-2.932 2.3244,-5.56 4.0413,-7.884 1.7174,-2.325 4.0014,-4.015 6.8544,-5.072 0.264,-0.105 0.528,-0.158 0.792,-0.158 0.37,0 0.806,0.211 1.308,0.634 0.502,0.422 1.03,1.043 1.585,1.862 0.554,0.819 1.043,1.664 1.466,2.536 0.422,0.871 0.739,1.466 0.951,1.783 1.426,2.694 2.469,5.56 3.13,8.597 0.66,3.038 1.043,6.062 1.149,9.073 0.211,4.544 -0.04,9.034 -0.753,13.472 -0.713,4.437 -2.153,8.769 -4.319,12.995 -0.739,1.268 -1.492,2.549 -2.258,3.843 -0.766,1.295 -1.677,2.549 -2.734,3.764 -0.211,0.212 -0.594,0.595 -1.149,1.149 l -1.704,1.704 c -0.581,0.581 -1.096,1.123 -1.545,1.624 -0.449,0.502 -0.673,0.806 -0.673,0.912 l 3.248,15.848 c 0.021,0.104 1.625,0 1.625,0 3.1,0.039 6.382,0.541 9.232,1.664 2.747,1.268 5.111,3.011 7.092,5.23 1.981,2.219 3.565,4.715 4.754,7.488 1.189,2.774 1.783,5.587 1.783,8.44 0,2.852 -0.423,5.758 -1.268,8.716 -2.166,5.6 -5.626,9.747 -10.38,12.441 -0.529,0.317 -1.282,0.674 -2.259,1.07 -0.977,0.396 -1.36,1.017 -1.149,1.862 1.268,5.756 2.126,9.716 2.576,11.886 0.449,2.17 0.779,4.97 0.99,8.4 0.211,3.28 -0.357,6.23 -1.704,8.87 -1.347,2.65 -3.156,4.8 -5.428,6.46 -2.271,1.67 -4.345,2.64 -6.22,2.94 -1.876,0.29 -3.157,0.43 -3.843,0.43 -2.3776,0 -4.702,-0.45 -6.9736,-1.35 -2.7999,-1.05 -5.1507,-2.66 -7.0525,-4.83 -1.9018,-2.17 -2.8527,-4.81 -2.8527,-7.92 0,-1.96 0.5679,-3.97 1.7037,-6.03 1.1358,-2.06 2.6282,-3.54 4.4771,-4.43 2.0603,-1.06 3.9225,-1.35 5.5866,-0.88 1.664,0.48 3.0375,1.38 4.1205,2.7 1.0829,1.32 1.8359,2.92 2.2589,4.79 0.422,1.88 0.396,3.63 -0.08,5.27 -0.475,1.64 -1.439,3.03 -2.892,4.16 -1.4528,1.14 -3.4735,1.65 -6.062,1.55 1.0565,1.9 2.5357,3.1 4.4375,3.6 1.9018,0.51 3.8565,0.54 5.8635,0.12 2.008,-0.42 3.896,-1.2 5.666,-2.34 1.77,-1.13 3.157,-2.36 4.16,-3.68 0.634,-0.95 1.11,-2.19 1.427,-3.72 0.317,-1.54 0.502,-3.13 0.554,-4.8 0.053,-1.66 0,-2.96 -0.158,-3.88 -0.159,-0.93 -0.423,-2.37 -0.793,-4.32 -1.584,-6.39 -2.588,-10.41 -3.011,-12.05 -0.211,-0.523 -0.779,-0.695 -1.703,-0.51 -0.925,0.185 -1.704,0.357 -2.338,0.51 -4.543,0.59 -8.3468,0.32 -11.4108,-0.787 -4.7545,-1.268 -8.9411,-3.527 -12.5598,-6.776 -3.6187,-3.248 -6.5242,-7.184 -8.7166,-11.807 -2.1923,-4.622 -3.2885,-8.135 -3.2885,-10.539 v -4.556 c 0,-4.279 0.7396,-8.294 2.2188,-12.045 2.7998,-5.864 6.1148,-11.252 9.9448,-16.165 3.83,-4.913 8.2015,-9.483 13.1145,-13.709 z"
         id="path2"
         style="fill:#c2c2c2;fill-opacity:1" /></g><g
       id="g3799"
       transform="matrix(0.527346,0,0,0.527346,49.776543,342.58469)"><path
         sodipodi:nodetypes="ccssscccc"
         id="path11058"
         d="m 123.64755,51.9873 v 74.57327 c -3.618,-2.72682 -9.81627,-3.04969 -15.77084,-0.37549 -7.68929,3.45329 -12.015412,10.53917 -9.637748,15.83344 2.377688,5.29428 10.522278,6.83273 18.211588,3.37946 0.48057,-0.21582 0.986,-0.44542 1.43939,-0.6884 5.9506,-3.18919 9.46833,-8.62977 8.76159,-13.26755 V 51.9873 Z"
         style="color:#c2c2c2;font-style:normal;font-variant:normal;font-weight:normal;font-stretch:normal;font-size:medium;line-height:normal;font-family:Sans;-inkscape-font-specification:Sans;text-indent:0;text-align:start;text-decoration:none;text-decoration-line:none;letter-spacing:normal;word-spacing:normal;text-transform:none;writing-mode:lr-tb;direction:ltr;baseline-shift:baseline;text-anchor:start;display:inline;overflow:visible;visibility:visible;fill:#c2c2c2;fill-opacity:1;stroke:none;stroke-width:1.5;marker:none;enable-background:accumulate"
         inkscape:connector-curvature="0" /><path
         style="fill:#c2c2c2;fill-opacity:1"
         id="path4149"
         d="m 79.903152,145.91202 v -17.00357 l 7.046381,-1.99531 v 16.91681 z m 13.874322,-4.11353 -4.844386,1.42418 v -16.91681 l 4.844386,-1.38804 v -7.02698 l -4.844386,1.38804 V 101.9942 h -1.983555 v 17.80881 l -7.046381,2.07845 v -16.80753 h -1.870814 v 17.44734 l -4.844386,1.39166 v 7.04144 l 4.844386,-1.38805 v 16.88428 l -4.844386,1.38444 v 7.01252 l 4.844386,-1.38804 v 17.18708 h 1.870814 v -17.80159 l 7.046381,-1.98808 v 16.72079 h 1.983555 v -17.34975 l 4.844386,-1.39166 z"
         inkscape:connector-curvature="0" /></g><g
       id="g3"
       transform="matrix(0.68935584,0,0,0.68935584,151.13334,243.76157)"><path
         d="m 118.5,90.4 c 0,-5.5 -5.2,-14.3 -19.1,-14.3 -10.3,0 -20.5,12.4 -20.5,23.2 0,13.8 7.8,25.8 21,25.8 14.9,0 18.7,-12.4 18.7,-18.5 -0.5,0 -1.2,0 -1.7,0 -0.8,5.2 -5.8,15.5 -14.4,15.5 -9.3,0 -11.7,-8.3 -11.7,-21.7 0,-16.9 5.5,-21.3 12.2,-21.3 5.3,0 8.1,2.8 8.6,3.5 0.24678,0.4 0.3,0.9 -0.1,1.3 -4,0 -8.7,2.8 -8.7,8.4 0,3.4 2.4,7.2 7.5,7.2 3.9,0 8.1,-3 8.1,-9 z"
         style="fill:#c2c2c2;fill-opacity:1;stroke:none"
         id="path6" /><path
         d="m 98,59.5 h 2 v 81.2 h -2 z"
         style="fill:#c2c2c2;fill-opacity:1;stroke:none"
         id="path7" /></g><g
       id="g3782"
       transform="matrix(0.61290162,0,0,0.61290162,192.35615,50.967522)"><path
         sodipodi:nodetypes="ccssscccccc"
         inkscape:connector-curvature="0"
         id="rect2987"
         d="m 254.30279,43.363271 v 74.531249 c -2.19436,-3.1329 -11.11823,-3.60474 -17.375,-0.15625 -7.41543,4.0871 -10.79756,11.75107 -7.5625,17.125 3.23507,5.37393 11.86582,6.43085 19.28125,2.34375 4.45154,-2.45352 7.41871,-6.2048 8.40625,-9.96875 0.45244,-2.06878 0.18854,-3.14209 0.15625,-4.59375 V 69.988271 c 32.53399,8.241492 17.51919,36.811079 14.59268,46.902749 26.72779,-36.505741 -14.22819,-51.395935 -14.59268,-73.527749 z"
         style="fill:#c2c2c2;fill-rule:evenodd;stroke:none" /></g><path
       d="m 402.78802,437.72458 c -0.99203,-0.019 -1.69464,-0.33126 -2.10782,-0.93923 -0.41318,-0.60795 -0.61341,-1.40155 -0.60065,-2.38085 0.0114,-1.51225 0.39584,-3.47755 1.15198,-5.89587 0.75612,-2.41833 1.8132,-4.60367 3.17122,-6.55604 1.35801,-1.95233 2.94578,-2.98567 4.76332,-3.10003 0.77903,0.0218 1.33965,0.30583 1.68188,0.85187 0.34218,0.54608 0.50964,1.2232 0.50238,2.03136 0.006,0.63749 -0.28749,2.22634 -0.88018,4.76654 -0.59274,2.54023 -1.52037,5.00278 -2.78291,7.38767 -1.26257,2.38489 -2.89565,3.66308 -4.89922,3.83458 z m -18.52253,-9.69811 c 0.0171,0.52423 0.20204,0.9174 0.55698,1.17949 0.35495,0.26212 0.78088,0.39318 1.27781,0.39318 1.56349,-0.13265 2.70793,-1.06139 3.43332,-2.78615 0.7254,-1.72474 1.43623,-3.4495 2.13248,-5.17428 0.69628,-1.72473 1.78247,-2.65344 3.25861,-2.78615 0.25845,2e-5 0.44047,0.0656 0.54606,0.19659 0.10555,0.13113 0.15652,0.32766 0.15292,0.58976 -0.004,0.27123 -0.062,0.60251 -0.17472,0.99382 -0.11294,0.39137 -0.25847,0.78819 -0.43687,1.19043 l -8.03806,23.76477 c -0.75021,1.83692 -1.87093,2.88106 -3.36217,3.1324 -1.4912,0.25131 -2.87079,0.39584 -4.13877,0.43361 -1.26793,0.0377 -1.94209,0.65473 -2.02246,1.85096 0.002,0.45869 0.15103,0.87369 0.44779,1.24503 0.29669,0.3713 0.72991,0.56789 1.29964,0.58974 0.15103,-0.019 1.11578,-0.091 2.89414,-0.21842 1.77835,-0.12734 3.98809,-0.20024 6.62923,-0.21843 2.55558,0.0189 4.71799,0.091 6.48725,0.21843 1.76926,0.12735 2.75217,0.20021 2.94875,0.21842 0.56973,-0.0218 1.00294,-0.21844 1.29964,-0.58974 0.29668,-0.37134 0.44595,-0.78634 0.44777,-1.24503 -0.055,-1.07057 -0.44009,-1.63793 -1.15522,-1.70211 -0.71515,-0.0642 -1.4303,-0.19147 -2.14543,-0.38184 -0.71515,-0.19039 -1.10023,-1.01016 -1.15523,-2.45932 0.004,-0.34585 0.04,-0.68077 0.10916,-1.00476 0.0692,-0.324 0.14932,-0.65892 0.24026,-1.00476 l 1.48529,-4.45589 c 0.35857,-0.87007 1.21408,-0.94287 2.56652,-0.21844 1.35239,0.72445 3.40925,1.17588 6.17053,1.35425 2.76125,-0.0582 5.71364,-1.55811 8.85718,-4.49957 3.14348,-2.94148 4.85085,-6.97507 5.1221,-12.10081 -0.0133,-2.8996 -0.81731,-5.26951 -2.41361,-7.10979 -1.59636,-1.8402 -3.90804,-2.79035 -6.93503,-2.85044 -1.55996,0.0201 -3.13627,0.43869 -4.72893,1.25594 -1.59272,0.81731 -3.01612,1.91307 -4.27022,3.28732 -0.30582,-1.29779 -0.89557,-2.37173 -1.76926,-3.22179 -0.87372,-0.85001 -2.03137,-1.2905 -3.47298,-1.32147 -2.40539,0.14668 -4.51631,1.23184 -6.33275,3.25535 -1.81642,2.02356 -3.23486,4.10536 -4.25525,6.24537 -1.0204,2.14004 -1.53922,3.45816 -1.55649,3.95433 z"
       id="text2502"
       style="font-style:normal;font-variant:normal;font-weight:normal;font-stretch:normal;font-size:174.261px;font-family:Emmentaler;-inkscape-font-specification:Emmentaler;text-align:center;text-anchor:middle;fill:#c2c2c2;fill-opacity:1;stroke:none;stroke-width:0.501382px;stroke-linecap:butt;stroke-linejoin:miter;stroke-opacity:1" /><path
       d="m 71.879895,263.88036 h 4.719735 c 0.656588,-0.0174 1.203227,-0.24329 1.6399,-0.67996 0.436603,-0.43662 0.663267,-0.98326 0.679958,-1.6399 -0.01735,-0.6566 -0.243355,-1.20324 -0.679958,-1.63991 -0.436673,-0.43662 -0.983312,-0.66327 -1.6399,-0.67996 h -3.359817 c 0.541607,-2.40817 1.278231,-4.63137 2.209874,-6.66962 0.93159,-2.03819 2.40817,-3.12146 4.429742,-3.24981 h 0.559981 c 0.458274,-0.0121 0.861582,0.0318 1.209924,0.12995 0.34829,0.0984 0.531596,0.32169 0.54997,0.66996 -0.126657,1.1183 -0.633321,1.86161 -1.519922,2.22988 -0.886635,0.36833 -1.393282,1.09163 -1.519904,2.16988 0.02672,0.98663 0.373274,1.81325 1.039942,2.47985 0.666599,0.66667 1.49322,1.01331 2.479863,1.03994 1.398209,-0.0666 2.441483,-0.71327 3.129822,-1.93988 0.688252,-1.22658 1.031563,-2.63316 1.029932,-4.21975 -0.04997,-2.01153 -0.729997,-3.68811 -2.039876,-5.02974 -1.309966,-1.34154 -2.949865,-2.03817 -4.919732,-2.08988 -3.714806,0.13828 -7.084617,1.62161 -10.109418,4.44975 -3.024853,2.82822 -5.254715,6.17135 -6.68962,10.02943 h -4.239756 c -0.65664,0.0173 -1.203279,0.24334 -1.639917,0.67996 -0.436637,0.43667 -0.663302,0.98331 -0.679958,1.63992 0.01735,0.65664 0.243321,1.20328 0.679958,1.6399 0.436638,0.43667 0.983277,0.66332 1.639917,0.67996 h 2.959824 l -5.279699,21.03881 c -0.418316,1.80155 -1.081601,3.41813 -1.98989,4.84972 -0.908271,1.43157 -2.191535,2.1882 -3.849773,2.26987 h -0.479979 c -0.496635,0.0139 -0.923279,-0.0333 -1.279932,-0.14002 -0.356636,-0.1067 -0.54329,-0.35332 -0.559964,-0.73995 0.126657,-1.07827 0.633303,-1.80157 1.519922,-2.16987 0.886618,-0.36833 1.393247,-1.11161 1.519904,-2.22987 -0.02169,-0.98328 -0.358301,-1.79658 -1.009944,-2.43987 -0.651626,-0.6433 -1.48824,-0.97662 -2.509844,-0.99994 -1.363266,0.0616 -2.396529,0.6983 -3.099841,1.90989 -0.703277,1.21159 -1.056581,2.62817 -1.05993,4.24977 0.04997,2.00821 0.729962,3.67143 2.039876,4.9897 1.309931,1.31824 2.949847,2.00155 4.919732,2.04989 2.638861,-0.10514 5.129584,-1.28142 7.472153,-3.52869 2.342587,-2.24728 4.382966,-4.93453 6.121137,-8.06177 1.738172,-3.12722 3.020065,-6.06334 3.845714,-8.80838 z"
       id="text2502-9"
       style="font-style:normal;font-variant:normal;font-weight:normal;font-stretch:normal;font-size:174.261px;font-family:Emmentaler;-inkscape-font-specification:Emmentaler;text-align:center;text-anchor:middle;fill:#c2c2c2;fill-opacity:1;stroke:none;stroke-width:0.45906px;stroke-linecap:butt;stroke-linejoin:miter;stroke-opacity:1" /><path
       d="m 249.64244,16.058039 c -0.12357,1.35716 -0.12357,2.71432 0.24669,4.19487 0.4935,1.97405 1.48054,3.82476 2.46759,5.3053 1.60393,2.09744 3.57798,3.9481 5.55203,5.30531 1.72731,1.35715 3.45464,2.22081 5.05852,3.3312 -4.31825,7.40274 -9.37678,16.4094 -13.44826,23.56537 h 4.81176 c 4.07152,-7.03258 8.51316,-15.17559 12.21453,-21.34455 1.48055,0.74028 2.83771,1.85071 4.07148,2.83771 1.35717,1.11043 2.34421,2.22082 3.4546,3.45464 1.11043,1.35716 1.85071,2.83771 2.59098,4.31825 0.86366,2.34422 1.35716,5.18192 -0.61689,7.40274 -1.23382,1.11039 -2.4676,1.23378 -3.70136,0.86366 -1.35717,-0.37025 -2.22083,-1.35721 -2.59099,-2.3442 0.12357,-0.49355 0.98705,-0.49355 1.60394,-1.48055 0.86366,-1.35716 1.23377,-2.71437 0.98705,-4.31826 -0.24669,-1.48054 -0.98705,-2.59098 -2.09744,-3.45464 -0.74027,-0.4935 -1.60393,-0.4935 -2.34421,-0.4935 -0.74027,-0.12358 -1.72732,0.12357 -2.22082,0.37026 -0.61688,0.37025 -1.11043,0.98704 -1.48054,1.72731 -0.37026,0.74028 -0.49355,1.72733 -0.49355,2.71433 0.12357,1.60393 0.49355,3.08448 1.23382,4.56502 0.74027,1.35716 1.72727,2.4676 3.08448,3.45465 1.97404,1.35715 4.07148,1.85066 6.2923,1.72727 2.22082,-0.24668 4.19487,-1.11039 5.92219,-2.83771 1.72732,-1.85066 2.83771,-4.07148 3.08448,-6.66246 0.12357,-1.35716 0.12357,-2.71432 -0.24668,-4.19487 -0.24668,-1.11043 -0.61689,-2.09743 -0.987,-2.96109 -0.61694,-1.85071 -2.34421,-3.57798 -3.57803,-4.8118 -0.987,-0.98701 -2.09743,-1.97405 -3.4546,-2.96109 -1.72731,-1.35717 -3.45459,-2.22083 -5.05852,-3.33121 4.31825,-7.40274 9.37678,-16.40941 13.44831,-23.56538 h -4.8118 c -3.9481,6.90919 -8.63651,15.05221 -12.21449,21.34455 -1.35716,-0.49355 -2.96109,-1.8507 -4.19491,-2.83771 -1.35717,-1.11043 -2.46755,-2.09747 -3.4546,-3.45463 -1.11039,-1.35717 -1.85066,-2.59094 -2.59093,-4.31826 -0.37026,-0.98705 -0.61694,-1.97404 -0.74028,-3.08448 -0.24668,-1.85066 0.12311,-3.08448 1.35716,-4.44164 1.23378,-1.11039 2.22082,-1.23377 3.70137,-0.86367 1.35716,0.37026 2.22082,1.23383 2.59094,2.34422 -0.4935,0.61688 -1.23378,0.74027 -1.60394,1.48054 -0.86362,1.35716 -1.23378,2.71437 -0.987,4.31826 0.24668,1.48055 0.987,2.59098 2.09744,3.45463 0.74027,0.49351 1.60392,0.49351 2.3442,0.49351 0.987,0 1.48055,-0.12358 2.22082,-0.37025 0.61688,-0.37026 1.11039,-0.98705 1.48055,-1.72733 0.37026,-0.74027 0.4935,-1.72732 0.4935,-2.8377 -0.12357,-1.60394 -0.4935,-3.08448 -1.23378,-4.44165 -0.74027,-1.35715 -1.72731,-2.46759 -3.08448,-3.45463 -0.86366,-0.61689 -1.8507,-0.98701 -2.71432,-1.23378 -1.35721,-0.37025 -2.83775,-0.37025 -4.19491,-0.24668 -0.86366,0.12358 -1.85066,0.37025 -2.83771,0.86366 -0.98705,0.49355 -1.60393,1.11043 -2.46759,1.97409 -1.72728,1.85067 -2.71433,4.31826 -2.9611,6.66246 z m 25.53946,10.98072 c 0,0.86366 0.4935,1.85066 1.35717,2.22082 0.74027,0.37026 1.72732,0.12357 2.46759,-0.24668 0.61688,-0.4935 0.86366,-1.23377 0.86366,-1.85066 0,-1.23382 -0.74028,-2.09748 -1.72732,-2.34421 -0.61689,-0.12357 -1.48055,0 -2.15913,0.49351 -0.67858,0.49349 -0.67858,1.11043 -0.80197,1.72731 z m -21.46793,11.47422 c 0.37026,0.61688 1.11039,1.11043 2.09744,1.23381 0.98704,0.12311 1.72731,-0.49354 2.09743,-1.3572 0.49355,-0.86361 0.24668,-1.97405 -0.37025,-2.71432 -0.61689,-0.86366 -1.60394,-0.86366 -2.59099,-0.61689 -0.74027,0.12358 -1.11038,0.74027 -1.41885,1.41885 -0.30823,0.67859 -0.18513,1.41886 0.18513,2.03575 z"
       style="fill:#c2c2c2;fill-opacity:1;stroke-width:1.23379"
       id="path1" /><path
       d="m 492.10926,79.353108 c -1.272,-0.55405 -2.23584,-1.8781 -2.23584,-3.07144 0,-0.83958 0.28619,-1.40155 1.6052,-3.152 1.82815,-2.42615 2.17071,-3.30884 1.80214,-4.64369 -0.36229,-1.31211 -1.52574,-1.89717 -2.93379,-1.47531 -1.41968,0.42535 -1.98909,1.45863 -2.212,4.01403 -0.21774,2.49609 -0.77738,3.52017 -2.30191,4.21223 -1.40037,0.63569 -2.15325,0.63907 -3.52552,0.0159 -2.03914,-0.92607 -3.04149,-3.70762 -2.01141,-5.58168 0.71368,-1.2984 1.83164,-1.85974 4.48403,-2.25149 2.02691,-0.29936 2.38113,-0.43539 3.03265,-1.16457 0.87338,-0.97747 0.92413,-1.56722 0.21271,-2.47164 -1.09355,-1.39023 -2.40824,-1.14233 -5.63526,1.0626 -2.22882,1.52288 -3.30686,1.63152 -4.81037,0.48473 -1.25624,-0.95817 -1.82189,-2.27678 -1.66722,-3.8865 0.15626,-1.62617 0.9848,-2.73647 2.46343,-3.30117 1.47684,-0.56401 2.62124,-0.29174 4.52816,1.07732 2.872,2.06193 3.99208,2.33442 5.18322,1.26098 0.50833,-0.4581 0.62047,-1.92793 0.20616,-2.70208 -0.36344,-0.6791 -2.17365,-1.33734 -3.67776,-1.33734 -3.31561,0 -5.52335,-2.12051 -4.82836,-4.63758 0.57272,-2.07422 2.40577,-3.56451 4.38434,-3.56451 2.15434,0 3.00632,1.06186 3.74847,4.67185 0.5131,2.49587 0.97003,3.45533 1.83274,3.84841 0.89222,0.40652 2.63461,-0.13599 3.19791,-0.9957 0.53249,-0.81267 0.33932,-2.3298 -0.41828,-3.28502 -1.63612,-2.06293 -2.65921,-3.83347 -2.65829,-4.60041 0.002,-1.68016 1.6681,-3.39679 3.66255,-3.77363 1.34119,-0.25341 2.77311,0.30155 3.84803,1.49135 0.84841,0.93909 0.9551,1.21662 0.9551,2.48458 0,1.32817 -0.10105,1.55654 -1.45367,3.28524 -2.24636,2.87094 -2.42159,3.90998 -0.87841,5.20849 0.83873,0.70574 1.77059,0.83819 2.63655,0.37475 0.77472,-0.41462 1.53418,-2.28681 1.54761,-3.81511 0.0251,-2.85366 1.59751,-4.62823 4.10104,-4.62823 3.16478,0 5.06547,3.05869 3.61844,5.82298 -0.6396,1.22185 -2.37563,2.11067 -4.13752,2.11835 -2.89107,0.0126 -4.66561,1.68279 -3.77415,3.5522 0.25642,0.53771 0.72377,0.98122 1.21411,1.15215 0.94613,0.32982 1.92635,-0.1303 4.53865,-2.13047 1.41531,-1.08367 1.81049,-1.25664 2.86906,-1.25579 1.63329,0.001 2.73184,0.70946 3.47178,2.23798 0.46406,0.95861 0.55766,1.47858 0.42141,2.34096 -0.34021,2.15328 -2.04902,3.89332 -3.87441,3.94522 -0.71172,0.0202 -1.4506,-0.40437 -4.60905,-2.6486 -0.46887,-0.33316 -1.2809,-0.67526 -1.80449,-0.76023 -0.81564,-0.13236 -1.06743,-0.039 -1.75801,0.65154 -1.59007,1.59007 -0.72244,3.21366 1.99939,3.74145 3.43673,0.66642 4.1736,0.90612 4.96831,1.6162 0.76387,0.68251 0.82523,0.86539 0.82523,2.45943 0,2.06258 -0.50127,2.90995 -2.26445,3.82793 -1.38455,0.72085 -2.72729,0.65801 -3.90825,-0.1829 -1.03661,-0.73813 -1.66467,-2.14812 -1.89615,-4.25681 -0.2487,-2.2656 -0.804,-3.32287 -1.9426,-3.69864 -1.10271,-0.36393 -2.00682,-0.0628 -2.7861,0.92787 -0.92528,1.17631 -0.72798,2.12694 0.90279,4.3497 1.54807,2.11003 2.1068,3.55047 1.84303,4.75141 -0.43998,2.0032 -3.83148,3.27329 -6.10097,2.28476 z m 3.96446,-15.25847 c 1.15481,-1.01393 1.43204,-2.20588 0.81533,-3.50549 -1.30768,-2.75575 -5.69271,-1.87647 -5.69271,1.1415 0,1.37395 0.33557,2.0093 1.40594,2.66196 1.24881,0.76145 2.37492,0.66479 3.47144,-0.29797 z"
       id="path2830"
       style="fill:#c2c2c2;stroke-width:0.264583;fill-opacity:1" /></g></svg>
